<svg xmlns="http://www.w3.org/2000/svg" xmlns:xlink="http://www.w3.org/1999/xlink" width="500" zoomAndPan="magnify" viewBox="112 184 151 8" height="500" preserveAspectRatio="none" version="1.0"><defs><clipPath id="266fddf01a"><path d="M 112.5 185.046875 L 262.496094 185.046875 L 262.496094 189.402344 L 112.5 189.402344 Z M 112.5 185.046875 " clip-rule="nonzero"/></clipPath><clipPath id="1abbd44451"><path d="M 198 184.59375 L 261 184.59375 L 261 190 L 198 190 Z M 198 184.59375 " clip-rule="nonzero"/></clipPath><clipPath id="3291ffc854"><path d="M 117.613281 189.003906 L 230.492188 189.003906 L 230.492188 190.566406 L 117.613281 190.566406 Z M 117.613281 189.003906 " clip-rule="nonzero"/></clipPath></defs><g clip-path="url(#266fddf01a)"><path fill="#231f20" d="M 118.570312 187.296875 C 122.148438 186.917969 126.042969 186.992188 129.75 187.097656 C 125.824219 187.222656 121.894531 187.324219 117.960938 187.382812 C 118.164062 187.355469 118.367188 187.320312 118.570312 187.296875 Z M 261.796875 185.113281 C 246.300781 187.210938 229.664062 187.175781 213.253906 186.980469 C 215.457031 186.949219 217.660156 186.90625 219.867188 186.832031 C 220.742188 186.804688 220.859375 186.261719 219.929688 186.234375 C 213.816406 186.058594 207.710938 186.089844 201.613281 186.214844 C 197.433594 186.210938 193.25 186.203125 189.070312 186.199219 C 184.601562 186.148438 180.128906 186.128906 175.65625 186.191406 C 172.496094 186.199219 169.339844 186.210938 166.179688 186.226562 C 165.347656 186.214844 164.511719 186.203125 163.679688 186.199219 C 157.933594 186.160156 152.183594 186.3125 146.4375 186.546875 C 143.03125 186.648438 139.621094 186.765625 136.214844 186.882812 C 134.640625 186.824219 133.066406 186.769531 131.488281 186.730469 C 128.011719 186.640625 124.53125 186.65625 121.066406 186.800781 C 118.5 186.90625 115.65625 187.4375 113.15625 187.4375 C 112.328125 187.4375 112.257812 187.988281 113.097656 187.988281 C 114.964844 187.984375 116.828125 187.96875 118.691406 187.945312 C 117.269531 188.011719 115.84375 188.078125 114.421875 188.136719 C 113.972656 188.15625 114.050781 188.464844 114.488281 188.46875 C 116.703125 188.496094 118.914062 188.5 121.128906 188.488281 C 121.199219 188.511719 121.265625 188.535156 121.367188 188.535156 C 131.691406 188.53125 142.023438 188.261719 152.355469 188.011719 C 152.734375 188.023438 153.113281 188.039062 153.496094 188.046875 C 154.488281 188.0625 155.480469 188.085938 156.472656 188.101562 C 142.898438 188.207031 129.351562 188.480469 115.824219 189.070312 C 115.515625 189.082031 115.558594 189.3125 115.871094 189.300781 C 132.664062 188.757812 149.472656 188.527344 166.3125 188.550781 C 170.707031 188.558594 175.105469 188.5625 179.5 188.566406 C 191.109375 188.78125 202.722656 188.894531 214.355469 188.59375 C 215.078125 188.574219 215.402344 188.109375 214.59375 188.019531 C 207.789062 187.285156 200.78125 187.777344 193.886719 187.976562 C 191.355469 188.050781 188.808594 188.082031 186.253906 188.09375 C 179.449219 188.003906 172.644531 187.867188 165.839844 187.726562 C 167.347656 187.703125 168.851562 187.675781 170.359375 187.660156 C 174.140625 187.613281 177.910156 187.515625 181.679688 187.40625 C 187.015625 187.410156 192.347656 187.425781 197.675781 187.4375 C 218.796875 187.484375 241.957031 188.777344 262.179688 185.578125 C 262.800781 185.480469 262.421875 185.027344 261.796875 185.113281 " fill-opacity="1" fill-rule="nonzero"/></g><g clip-path="url(#1abbd44451)"><path fill="#231f20" d="M 225.167969 188.5 C 228.820312 188.5625 232.46875 188.609375 236.121094 188.628906 C 234.710938 188.652344 233.300781 188.6875 231.886719 188.730469 C 229.648438 188.65625 227.40625 188.578125 225.167969 188.5 Z M 200.53125 186.964844 C 200.101562 186.988281 200.167969 187.285156 200.59375 187.285156 C 209.113281 187.304688 217.59375 187.570312 226.082031 187.871094 C 234.199219 188.160156 242.34375 187.746094 250.445312 188.191406 C 254.136719 188.398438 248 188.269531 247.714844 188.277344 C 245.089844 188.324219 242.457031 188.328125 239.828125 188.335938 C 235.257812 188.347656 230.683594 188.289062 226.113281 188.21875 C 218.089844 188.101562 210.074219 187.9375 202.046875 187.890625 C 201.542969 187.886719 201.042969 187.878906 200.542969 187.875 C 200.542969 187.875 200.542969 187.878906 200.542969 187.882812 C 199.878906 187.878906 199.21875 187.871094 198.558594 187.867188 C 198.144531 187.867188 198.113281 188.140625 198.53125 188.144531 C 208.332031 188.164062 218.085938 188.535156 227.851562 188.855469 C 220.355469 189.105469 212.863281 189.34375 205.476562 188.535156 C 205.296875 188.515625 205.207031 188.632812 205.386719 188.652344 C 214.214844 189.726562 223.285156 189.269531 232.300781 188.996094 C 238.027344 189.167969 243.757812 189.308594 249.503906 189.324219 C 249.863281 189.328125 250 189.085938 249.617188 189.050781 C 247.109375 188.808594 244.589844 188.691406 242.066406 188.636719 C 245.917969 188.625 249.777344 188.578125 253.636719 188.460938 C 254.027344 188.449219 254.222656 188.1875 253.765625 188.144531 C 245.796875 187.398438 237.625 187.691406 229.53125 187.625 C 220.527344 187.550781 211.558594 187.027344 202.535156 186.964844 C 211.722656 187.027344 222.730469 186.515625 232.554688 186.300781 C 241.976562 186.09375 251.371094 185.75 260.597656 184.882812 C 260.945312 184.847656 260.832031 184.625 260.484375 184.652344 C 240.640625 186.144531 220.460938 185.847656 200.53125 186.964844 " fill-opacity="1" fill-rule="nonzero"/></g><g clip-path="url(#3291ffc854)"><path fill="#231f20" d="M 173.390625 189.554688 C 154.945312 188.996094 136.433594 189.132812 117.957031 189.382812 C 117.679688 189.386719 117.652344 189.5625 117.9375 189.570312 C 120.839844 189.660156 123.425781 190.0625 126.199219 190.382812 C 126.261719 190.386719 126.289062 190.347656 126.230469 190.339844 C 124.03125 190.050781 121.890625 189.707031 119.65625 189.464844 C 120.378906 189.542969 122.519531 189.601562 123.648438 189.601562 C 128.789062 189.605469 133.929688 189.574219 139.070312 189.550781 C 149.265625 189.5 159.441406 189.523438 169.613281 189.839844 C 189.753906 190.464844 210.421875 191.332031 230.273438 189.269531 C 230.527344 189.242188 230.445312 189.078125 230.1875 189.097656 C 211.347656 190.609375 192.382812 190.125 173.390625 189.554688 " fill-opacity="1" fill-rule="nonzero"/></g></svg>