<svg xmlns="http://www.w3.org/2000/svg" xmlns:xlink="http://www.w3.org/1999/xlink" width="500" zoomAndPan="magnify" viewBox="112 178 151 18" height="500" preserveAspectRatio="none" version="1.0"><defs><clipPath id="3e0d29ef92"><path d="M 112.5 178.375 L 262.5 178.375 L 262.5 196 L 112.5 196 Z M 112.5 178.375 " clip-rule="nonzero"/></clipPath></defs><g clip-path="url(#3e0d29ef92)"><path fill="#000000" d="M 129.269531 180.632812 C 128.226562 181.714844 125.707031 184.738281 123.660156 187.390625 C 121.636719 190.039062 119.832031 192.199219 119.640625 192.199219 C 119.261719 192.199219 118.308594 190.066406 116.621094 185.277344 C 115.910156 183.28125 115.148438 181.453125 114.9375 181.214844 C 114.390625 180.605469 113.414062 180.796875 113.03125 181.59375 C 112.746094 182.15625 112.769531 182.367188 113.082031 183.046875 C 113.296875 183.464844 113.464844 183.9375 113.464844 184.101562 C 113.464844 184.246094 114.058594 186.140625 114.773438 188.28125 C 116.320312 192.902344 117.316406 194.824219 118.480469 195.457031 C 120.191406 196.371094 121.101562 195.640625 125.117188 190.203125 C 126.496094 188.324219 128.441406 185.769531 129.488281 184.480469 L 131.34375 182.15625 L 133.199219 187.222656 C 135.648438 193.953125 136.363281 195.128906 138.070312 195.128906 C 139 195.128906 139.6875 194.449219 141.1875 191.964844 C 143.992188 187.339844 147.0625 184.128906 149.699219 183.050781 L 150.554688 182.699219 L 151.175781 183.636719 C 151.535156 184.15625 152.511719 186.238281 153.339844 188.261719 C 155.125 192.625 155.8125 193.839844 156.738281 194.3125 C 158.542969 195.226562 159.925781 194.378906 162.375 190.886719 C 165.226562 186.808594 167.988281 184.109375 169.25 184.109375 C 169.914062 184.109375 170.058594 184.367188 171.722656 188.351562 C 174.410156 194.804688 175.601562 194.78125 181.042969 188.210938 C 182.730469 186.171875 183.664062 185.515625 184.234375 185.886719 C 184.445312 186.003906 185.183594 187.15625 185.875 188.445312 C 186.5625 189.738281 187.488281 191.191406 187.941406 191.660156 C 188.679688 192.433594 188.894531 192.550781 189.863281 192.550781 C 191.054688 192.550781 192.078125 191.917969 194.429688 189.738281 C 195.859375 188.421875 197.28125 187.488281 198.164062 187.273438 C 198.761719 187.128906 198.855469 187.222656 199.542969 188.609375 C 200.613281 190.695312 201.089844 191.140625 202.230469 191.140625 C 203.371094 191.140625 204.058594 190.695312 206.917969 187.976562 C 209.316406 185.703125 210.71875 184.578125 211.152344 184.578125 C 211.292969 184.578125 211.601562 185.1875 211.789062 185.914062 C 213.125 190.578125 213.789062 191.871094 215.308594 192.785156 C 216.808594 193.699219 218.28125 193.304688 221.46875 191.191406 C 223.628906 189.757812 224.582031 189.269531 225.226562 189.269531 C 225.535156 189.269531 226.222656 189.761719 226.894531 190.441406 C 228.128906 191.707031 228.867188 192.085938 230.125 192.085938 C 231.148438 192.085938 231.886719 191.734375 234.5 189.972656 C 237.398438 188.050781 237.347656 188.074219 238.5625 188.421875 C 239.160156 188.609375 240.800781 188.867188 242.226562 189.007812 C 246.53125 189.476562 249.03125 190.324219 251.261719 192.082031 C 253.304688 193.699219 254.925781 194.167969 257.132812 193.742188 C 259.320312 193.34375 261.863281 192.527344 262.007812 192.148438 C 262.292969 191.402344 261.699219 191.300781 259.34375 191.703125 C 256.0625 192.242188 255.039062 192.199219 253.707031 191.421875 C 253.085938 191.066406 251.878906 190.363281 250.996094 189.871094 C 248.6875 188.535156 246.859375 187.945312 243.671875 187.503906 C 242.125 187.292969 240.152344 186.871094 239.273438 186.539062 C 238.226562 186.136719 237.46875 186 236.941406 186.09375 C 236.535156 186.160156 234.996094 187.007812 233.515625 187.972656 C 231.996094 188.980469 230.589844 189.734375 230.257812 189.734375 C 229.878906 189.734375 229.214844 189.3125 228.429688 188.582031 C 226.789062 187.058594 225.699219 186.703125 224.03125 187.246094 C 223.34375 187.457031 221.703125 188.328125 220.367188 189.144531 C 217.398438 191 216.703125 191.09375 215.851562 189.777344 C 215.542969 189.308594 214.949219 187.878906 214.542969 186.613281 C 213.640625 183.726562 213.089844 182.8125 212 182.460938 C 210.714844 182.039062 209.167969 182.929688 205.984375 185.859375 C 203.558594 188.109375 202.464844 188.953125 202.273438 188.746094 C 202.25 188.695312 201.941406 188.132812 201.609375 187.476562 C 199.875 184.078125 197.757812 184.238281 192.910156 188.207031 C 191.574219 189.308594 190.292969 190.203125 190.078125 190.203125 C 189.652344 190.203125 188.9375 189.171875 187.535156 186.496094 C 185.417969 182.460938 183.28125 182.367188 179.878906 186.140625 C 176.859375 189.496094 175.839844 190.503906 175.601562 190.363281 C 175.457031 190.269531 174.792969 188.863281 174.128906 187.21875 C 173.464844 185.554688 172.65625 183.792969 172.367188 183.277344 C 171.726562 182.152344 170.488281 181.28125 169.492188 181.28125 C 167.253906 181.28125 163.835938 184.210938 160.3125 189.066406 C 159.242188 190.59375 158.195312 191.835938 158.035156 191.835938 C 157.703125 191.835938 157.226562 190.921875 155.679688 187.285156 C 154.324219 184.074219 153.203125 182.078125 152.234375 181.164062 C 151.1875 180.179688 149.78125 180.199219 147.808594 181.257812 C 144.859375 182.804688 142.195312 185.453125 139.347656 189.65625 L 137.96875 191.667969 L 137.636719 190.871094 C 137.46875 190.425781 136.539062 187.960938 135.59375 185.382812 C 134.664062 182.800781 133.789062 180.390625 133.644531 180.039062 C 133.5 179.6875 133.167969 179.242188 132.886719 179.054688 C 131.890625 178.351562 131.3125 178.609375 129.296875 180.625 Z M 129.269531 180.632812 " fill-opacity="1" fill-rule="evenodd"/></g></svg>