<svg xmlns="http://www.w3.org/2000/svg" xmlns:xlink="http://www.w3.org/1999/xlink" width="500" zoomAndPan="magnify" viewBox="112 182 151 11" height="500" preserveAspectRatio="none" version="1.0"><defs><clipPath id="6c72abf2cc"><path d="M 112.5 192 L 113 192 L 113 192.90625 L 112.5 192.90625 Z M 112.5 192 " clip-rule="nonzero"/></clipPath><clipPath id="6d30a8bb63"><path d="M 113 191 L 115 191 L 115 192.90625 L 113 192.90625 Z M 113 191 " clip-rule="nonzero"/></clipPath><clipPath id="565ad5257b"><path d="M 123 187 L 135 187 L 135 192.90625 L 123 192.90625 Z M 123 187 " clip-rule="nonzero"/></clipPath><clipPath id="3df2ca001b"><path d="M 157 184 L 206 184 L 206 192.90625 L 157 192.90625 Z M 157 184 " clip-rule="nonzero"/></clipPath><clipPath id="42e05f92b7"><path d="M 229 182.40625 L 262.5 182.40625 L 262.5 188 L 229 188 Z M 229 182.40625 " clip-rule="nonzero"/></clipPath></defs><g clip-path="url(#6c72abf2cc)"><path fill="#000000" d="M 112.757812 192.75 C 112.808594 192.664062 112.882812 192.59375 112.917969 192.59375 C 112.957031 192.59375 112.984375 192.664062 112.984375 192.75 C 112.984375 192.835938 112.914062 192.90625 112.824219 192.90625 C 112.738281 192.90625 112.707031 192.835938 112.757812 192.75 Z M 112.757812 192.75 " fill-opacity="1" fill-rule="nonzero"/></g><g clip-path="url(#6d30a8bb63)"><path fill="#000000" d="M 113.699219 192.035156 C 113.746094 191.910156 113.84375 191.847656 113.917969 191.894531 C 114.109375 192.015625 114.089844 192.070312 113.835938 192.175781 C 113.6875 192.234375 113.640625 192.1875 113.699219 192.035156 Z M 113.699219 192.035156 " fill-opacity="1" fill-rule="nonzero"/></g><g clip-path="url(#565ad5257b)"><path fill="#000000" d="M 124.164062 191.933594 C 123.5 191.582031 123.332031 191.238281 123.742188 191.078125 C 123.871094 191.027344 123.972656 190.917969 123.972656 190.835938 C 123.972656 190.753906 123.914062 190.722656 123.847656 190.765625 C 123.777344 190.808594 123.605469 190.707031 123.464844 190.535156 C 123.238281 190.261719 123.234375 190.214844 123.441406 190.132812 C 123.617188 190.0625 123.632812 189.988281 123.507812 189.828125 C 123.414062 189.710938 123.378906 189.550781 123.425781 189.464844 C 123.476562 189.382812 123.429688 189.28125 123.324219 189.238281 C 123.179688 189.175781 123.179688 189.152344 123.320312 189.144531 C 123.546875 189.128906 123.402344 188.171875 123.148438 187.992188 C 123.058594 187.929688 123.164062 187.878906 123.386719 187.875 C 123.71875 187.875 123.777344 187.933594 123.714844 188.1875 C 123.660156 188.398438 123.707031 188.5 123.863281 188.5 C 124.183594 188.5 124.320312 189.316406 124.039062 189.542969 C 123.851562 189.695312 123.847656 189.746094 124.03125 189.902344 C 124.3125 190.140625 124.429688 190.800781 124.230469 191.003906 C 124.125 191.113281 124.15625 191.191406 124.332031 191.25 C 124.472656 191.296875 124.6875 191.367188 124.8125 191.40625 C 124.941406 191.449219 125.042969 191.410156 125.042969 191.324219 C 125.042969 191.132812 126.320312 190.546875 126.734375 190.546875 C 126.894531 190.546875 127.027344 190.445312 127.027344 190.324219 C 127.027344 190.199219 127.285156 190.015625 127.597656 189.910156 C 127.914062 189.804688 128.273438 189.640625 128.402344 189.542969 C 129.246094 188.882812 130.382812 188.582031 130.386719 189.015625 C 130.386719 189.121094 130.472656 189.042969 130.578125 188.835938 C 130.757812 188.472656 131.070312 188.355469 131.070312 188.648438 C 131.070312 188.726562 131.121094 188.84375 131.183594 188.910156 C 131.246094 188.972656 131.296875 188.945312 131.296875 188.84375 C 131.296875 188.742188 131.4375 188.660156 131.613281 188.660156 C 131.785156 188.660156 131.886719 188.59375 131.835938 188.507812 C 131.789062 188.425781 131.628906 188.402344 131.484375 188.457031 C 131.335938 188.511719 131.386719 188.417969 131.605469 188.234375 C 132.195312 187.746094 132.640625 187.539062 132.742188 187.707031 C 132.832031 187.855469 133.722656 187.457031 133.914062 187.183594 C 134.050781 186.992188 134.757812 187.195312 134.855469 187.453125 C 134.898438 187.570312 134.875 187.765625 134.800781 187.886719 C 134.695312 188.0625 134.628906 188.066406 134.476562 187.910156 C 134.273438 187.699219 133.882812 187.644531 133.910156 187.832031 C 133.941406 188.085938 133.695312 188.660156 133.554688 188.660156 C 133.46875 188.660156 133.4375 188.566406 133.480469 188.449219 C 133.523438 188.335938 133.464844 188.242188 133.351562 188.242188 C 133.234375 188.242188 133.105469 188.34375 133.058594 188.46875 C 132.984375 188.660156 132.910156 188.652344 132.570312 188.425781 C 132.304688 188.246094 132.203125 188.289062 132.269531 188.558594 C 132.34375 188.867188 132.296875 189.003906 132.070312 189.128906 C 131.859375 189.242188 131.742188 189.238281 131.667969 189.113281 C 131.59375 188.992188 131.515625 189.019531 131.417969 189.199219 C 131.332031 189.359375 131.167969 189.429688 131 189.371094 C 130.804688 189.308594 130.695312 189.386719 130.621094 189.640625 C 130.558594 189.855469 130.484375 189.917969 130.4375 189.800781 C 130.316406 189.507812 130.109375 189.566406 130 189.917969 C 129.945312 190.097656 129.769531 190.234375 129.601562 190.234375 C 129.429688 190.234375 129.148438 190.316406 128.96875 190.414062 C 128.726562 190.550781 128.628906 190.550781 128.585938 190.414062 C 128.488281 190.113281 128.246094 190.210938 128.246094 190.550781 C 128.246094 190.816406 128.179688 190.851562 127.855469 190.769531 C 127.570312 190.695312 127.46875 190.726562 127.492188 190.882812 C 127.558594 191.367188 127.457031 191.484375 126.914062 191.585938 C 126.597656 191.644531 126.253906 191.761719 126.144531 191.851562 C 126.003906 191.964844 125.886719 191.925781 125.726562 191.714844 C 125.515625 191.429688 125.507812 191.433594 125.542969 191.808594 C 125.589844 192.34375 125.027344 192.394531 124.164062 191.9375 Z M 124.164062 191.933594 " fill-opacity="1" fill-rule="nonzero"/></g><g clip-path="url(#3df2ca001b)"><path fill="#000000" d="M 169.796875 191.742188 C 169.441406 191.535156 169.082031 191.421875 168.980469 191.492188 C 168.792969 191.609375 167.714844 191.261719 167.328125 190.964844 C 167.203125 190.867188 167.164062 190.65625 167.222656 190.414062 C 167.304688 190.070312 167.289062 190.046875 167.082031 190.226562 C 166.878906 190.398438 166.84375 190.382812 166.84375 190.113281 C 166.84375 189.941406 166.945312 189.710938 167.070312 189.601562 C 167.199219 189.496094 167.296875 189.328125 167.289062 189.230469 C 167.28125 189.117188 167.246094 189.125 167.199219 189.25 C 167.15625 189.359375 167.046875 189.445312 166.957031 189.445312 C 166.863281 189.445312 166.832031 189.402344 166.882812 189.351562 C 166.933594 189.300781 166.914062 189.085938 166.835938 188.878906 C 166.730469 188.585938 166.75 188.503906 166.921875 188.503906 C 167.046875 188.503906 167.148438 188.398438 167.148438 188.265625 C 167.148438 188.136719 167.214844 188.03125 167.292969 188.03125 C 167.378906 188.03125 167.371094 187.835938 167.273438 187.542969 C 167.144531 187.171875 167.152344 187.023438 167.292969 186.933594 C 167.429688 186.847656 167.414062 186.789062 167.230469 186.71875 C 167.082031 186.660156 166.949219 186.714844 166.894531 186.855469 C 166.785156 187.15625 165.78125 187.164062 165.386719 186.867188 C 165.171875 186.703125 165.011719 186.6875 164.800781 186.804688 C 164.566406 186.933594 164.550781 186.992188 164.722656 187.101562 C 164.894531 187.210938 164.878906 187.238281 164.667969 187.242188 C 164.519531 187.242188 164.402344 187.3125 164.402344 187.390625 C 164.402344 187.472656 164.199219 187.53125 163.949219 187.527344 C 163.699219 187.519531 163.390625 187.605469 163.253906 187.71875 C 163.109375 187.84375 162.695312 187.914062 162.21875 187.894531 C 161.636719 187.871094 161.339844 187.9375 161.113281 188.144531 C 160.742188 188.484375 160.503906 188.546875 160.101562 188.417969 C 159.925781 188.359375 159.835938 188.230469 159.886719 188.097656 C 159.929688 187.972656 159.902344 187.875 159.820312 187.875 C 159.738281 187.875 159.671875 188.085938 159.671875 188.347656 C 159.671875 188.714844 159.605469 188.816406 159.363281 188.816406 C 159.191406 188.816406 159.011719 188.710938 158.964844 188.585938 C 158.917969 188.453125 158.71875 188.363281 158.511719 188.382812 C 158.078125 188.421875 158.066406 188.464844 158.398438 188.84375 C 158.796875 189.296875 158.519531 189.367188 158.066406 188.933594 L 157.660156 188.542969 L 158.175781 188.136719 C 158.457031 187.914062 158.941406 187.707031 159.25 187.671875 C 159.554688 187.640625 159.910156 187.527344 160.03125 187.421875 C 160.15625 187.3125 160.417969 187.210938 160.613281 187.191406 C 160.8125 187.171875 161.117188 187.074219 161.292969 186.96875 C 161.472656 186.867188 161.664062 186.832031 161.722656 186.890625 C 161.777344 186.949219 161.875 186.921875 161.933594 186.824219 C 162.0625 186.609375 164.246094 185.960938 164.433594 186.082031 C 164.507812 186.128906 164.652344 186.097656 164.757812 186.007812 C 164.859375 185.917969 165.320312 185.828125 165.78125 185.808594 C 166.238281 185.789062 166.738281 185.695312 166.886719 185.605469 C 167.082031 185.480469 167.1875 185.480469 167.269531 185.605469 C 167.328125 185.703125 167.53125 185.863281 167.722656 185.964844 C 168.089844 186.164062 168.191406 186.609375 167.875 186.617188 C 167.769531 186.621094 167.800781 186.695312 167.949219 186.78125 C 168.097656 186.871094 168.21875 187.089844 168.21875 187.273438 C 168.21875 187.453125 168.097656 187.695312 167.949219 187.808594 C 167.722656 187.988281 167.71875 188.019531 167.925781 188.023438 C 168.105469 188.027344 168.160156 188.175781 168.140625 188.617188 C 168.125 188.941406 168.175781 189.292969 168.253906 189.398438 C 168.332031 189.5 168.355469 189.722656 168.304688 189.886719 C 168.140625 190.410156 168.828125 190.738281 169.671875 190.542969 C 170.058594 190.453125 170.523438 190.285156 170.707031 190.167969 C 170.890625 190.046875 171.554688 189.671875 172.183594 189.332031 C 175.027344 187.785156 175.492188 187.558594 175.800781 187.558594 C 175.953125 187.558594 176.335938 187.417969 176.648438 187.242188 C 176.960938 187.070312 177.390625 186.929688 177.601562 186.929688 C 177.8125 186.929688 177.980469 186.859375 177.980469 186.773438 C 177.980469 186.683594 178.105469 186.613281 178.257812 186.613281 C 178.410156 186.613281 178.839844 186.460938 179.210938 186.273438 C 179.585938 186.085938 180.234375 185.875 180.652344 185.8125 C 181.070312 185.746094 181.621094 185.648438 181.871094 185.59375 C 182.234375 185.511719 182.429688 185.578125 182.789062 185.894531 C 183.039062 186.117188 183.304688 186.300781 183.375 186.300781 C 183.449219 186.300781 183.46875 186.40625 183.417969 186.539062 C 183.367188 186.679688 183.417969 186.773438 183.554688 186.773438 C 183.835938 186.773438 183.835938 186.835938 183.546875 187.410156 C 183.417969 187.667969 183.195312 187.882812 183.050781 187.890625 C 182.890625 187.902344 182.9375 187.949219 183.167969 188.015625 C 183.378906 188.078125 183.574219 188.265625 183.605469 188.433594 C 183.660156 188.746094 183.972656 189.003906 184.390625 189.089844 C 184.671875 189.144531 185.859375 188.835938 186.371094 188.574219 C 187.035156 188.234375 187.957031 187.894531 188.507812 187.785156 C 188.800781 187.726562 189.453125 187.480469 189.957031 187.238281 C 191.054688 186.714844 192.226562 186.300781 192.621094 186.300781 C 192.777344 186.300781 192.929688 186.226562 192.960938 186.136719 C 192.992188 186.042969 193.519531 185.902344 194.132812 185.824219 C 195.042969 185.707031 195.3125 185.722656 195.574219 185.914062 C 195.988281 186.210938 196.292969 186.21875 195.898438 185.921875 C 195.679688 185.753906 195.648438 185.648438 195.769531 185.519531 C 195.992188 185.285156 197.519531 184.875 197.710938 184.996094 C 197.796875 185.050781 197.816406 185.015625 197.761719 184.921875 C 197.613281 184.671875 197.8125 184.59375 198.820312 184.503906 C 200.230469 184.378906 200.613281 184.324219 200.980469 184.195312 C 201.191406 184.125 201.324219 184.144531 201.324219 184.246094 C 201.324219 184.339844 201.453125 184.414062 201.613281 184.414062 C 201.769531 184.414062 201.945312 184.535156 202 184.683594 C 202.085938 184.917969 202.121094 184.921875 202.238281 184.726562 C 202.355469 184.53125 202.410156 184.527344 202.574219 184.710938 C 202.71875 184.863281 202.722656 184.945312 202.597656 184.992188 C 202.378906 185.074219 202.515625 185.671875 202.75 185.675781 C 202.878906 185.675781 202.878906 185.707031 202.75 185.792969 C 202.65625 185.859375 202.613281 186.132812 202.65625 186.417969 C 202.734375 186.957031 202.910156 187.085938 203.050781 186.703125 C 203.128906 186.496094 203.476562 186.367188 204.714844 186.078125 C 205.230469 185.960938 205.246094 186.121094 204.816406 187.039062 C 204.5 187.714844 203.914062 188 203.914062 187.484375 C 203.914062 187.351562 203.847656 187.246094 203.761719 187.246094 C 203.675781 187.246094 203.609375 187.125 203.609375 186.980469 C 203.609375 186.773438 203.566406 186.753906 203.425781 186.898438 C 203.285156 187.046875 203.308594 187.136719 203.523438 187.296875 C 203.785156 187.496094 203.777344 187.527344 203.378906 187.847656 C 202.75 188.355469 202.160156 188.300781 201.871094 187.707031 C 201.683594 187.320312 201.675781 187.160156 201.820312 186.917969 C 201.964844 186.679688 201.960938 186.546875 201.796875 186.273438 C 201.617188 185.976562 201.625 185.90625 201.84375 185.738281 C 202.015625 185.609375 202.046875 185.511719 201.933594 185.4375 C 201.839844 185.378906 201.675781 185.40625 201.570312 185.5 C 201.429688 185.617188 201.324219 185.617188 201.210938 185.5 C 201.101562 185.386719 200.953125 185.382812 200.765625 185.480469 C 200.609375 185.566406 200.308594 185.617188 200.097656 185.601562 C 199.890625 185.582031 199.683594 185.621094 199.636719 185.6875 C 199.59375 185.757812 199.371094 185.847656 199.144531 185.890625 C 198.8125 185.953125 198.726562 185.910156 198.726562 185.679688 C 198.726562 185.46875 198.644531 185.410156 198.421875 185.46875 C 198.257812 185.515625 198.15625 185.609375 198.195312 185.679688 C 198.300781 185.851562 197.664062 186.304688 197.320312 186.304688 C 197.171875 186.304688 197.046875 186.214844 197.046875 186.105469 C 197.042969 185.960938 197.007812 185.96875 196.910156 186.125 C 196.800781 186.304688 196.765625 186.304688 196.699219 186.125 C 196.644531 185.984375 196.609375 186.007812 196.601562 186.203125 C 196.59375 186.417969 196.507812 186.476562 196.285156 186.414062 C 196.117188 186.371094 195.980469 186.390625 195.980469 186.457031 C 195.980469 186.703125 195.527344 186.757812 195.316406 186.539062 C 195.125 186.34375 195.085938 186.367188 195 186.714844 C 194.933594 186.980469 194.824219 187.089844 194.683594 187.03125 C 194.5625 186.984375 194.425781 187.011719 194.378906 187.089844 C 194.328125 187.179688 194.148438 187.179688 193.925781 187.09375 C 193.628906 186.976562 193.523438 187.015625 193.332031 187.3125 C 193.097656 187.683594 192.472656 187.964844 192.472656 187.703125 C 192.472656 187.625 192.402344 187.5625 192.320312 187.5625 C 192.234375 187.5625 192.167969 187.664062 192.167969 187.785156 C 192.167969 188.101562 191.550781 188.28125 191.386719 188.011719 C 191.285156 187.839844 191.257812 187.851562 191.253906 188.054688 C 191.25 188.390625 190.886719 188.53125 190.636719 188.296875 C 190.488281 188.152344 190.46875 188.15625 190.550781 188.308594 C 190.613281 188.421875 190.574219 188.503906 190.457031 188.503906 C 190.347656 188.503906 190.003906 188.679688 189.695312 188.898438 C 189.386719 189.113281 189.097656 189.234375 189.054688 189.164062 C 188.949219 188.984375 187.90625 189.085938 187.660156 189.296875 C 187.546875 189.394531 187.492188 189.574219 187.539062 189.695312 C 187.585938 189.820312 187.5625 189.929688 187.492188 189.941406 C 187.421875 189.953125 187.191406 189.984375 186.980469 190.011719 C 186.773438 190.042969 186.289062 190.109375 185.914062 190.164062 C 184.746094 190.335938 184.050781 190.246094 183.554688 189.863281 C 182.980469 189.421875 182.558594 189.234375 182.226562 189.273438 C 182.03125 189.300781 181.992188 189.222656 182.058594 188.960938 C 182.121094 188.707031 182.09375 188.644531 181.957031 188.734375 C 181.820312 188.820312 181.78125 188.746094 181.816406 188.488281 C 181.847656 188.285156 182.027344 188.039062 182.222656 187.9375 C 183.039062 187.519531 182.070312 187.039062 180.976562 187.324219 C 180.367188 187.484375 180.210938 187.480469 180.027344 187.292969 C 179.835938 187.097656 179.789062 187.121094 179.660156 187.472656 C 179.5 187.902344 179.210938 187.976562 178.71875 187.707031 C 178.449219 187.554688 178.417969 187.582031 178.460938 187.902344 C 178.5 188.183594 178.433594 188.269531 178.175781 188.285156 C 177.992188 188.296875 177.589844 188.425781 177.285156 188.574219 C 176.976562 188.726562 176.597656 188.8125 176.4375 188.769531 C 176.265625 188.722656 176.078125 188.800781 175.984375 188.953125 C 175.867188 189.144531 175.800781 189.160156 175.742188 189.015625 C 175.617188 188.703125 175.382812 188.789062 175.382812 189.144531 C 175.382812 189.613281 175.039062 189.902344 174.167969 190.171875 C 173.746094 190.300781 173.398438 190.480469 173.398438 190.574219 C 173.398438 190.664062 173.304688 190.703125 173.1875 190.65625 C 173.058594 190.605469 172.941406 190.695312 172.894531 190.875 C 172.84375 191.078125 172.683594 191.179688 172.417969 191.179688 C 172.199219 191.179688 171.976562 191.285156 171.929688 191.414062 C 171.832031 191.679688 171.03125 191.738281 170.882812 191.496094 C 170.703125 191.195312 170.542969 191.339844 170.617188 191.730469 C 170.707031 192.214844 170.59375 192.21875 169.792969 191.746094 Z M 169.796875 191.742188 " fill-opacity="1" fill-rule="nonzero"/></g><path fill="#000000" d="M 203.191406 187.675781 C 203.304688 187.355469 203.148438 187.085938 202.839844 187.085938 C 202.585938 187.085938 202.570312 187.136719 202.722656 187.480469 C 202.914062 187.910156 203.082031 187.980469 203.191406 187.675781 Z M 203.191406 187.675781 " fill-opacity="1" fill-rule="nonzero"/><path fill="#000000" d="M 161.960938 187.5625 C 161.960938 187.480469 161.859375 187.453125 161.730469 187.5 C 161.605469 187.550781 161.503906 187.621094 161.503906 187.652344 C 161.503906 187.6875 161.605469 187.714844 161.730469 187.714844 C 161.859375 187.714844 161.960938 187.644531 161.960938 187.5625 Z M 161.960938 187.5625 " fill-opacity="1" fill-rule="nonzero"/><path fill="#000000" d="M 198.269531 185.199219 C 198.269531 185.128906 198.132812 185.109375 197.96875 185.152344 C 197.800781 185.199219 197.699219 185.296875 197.742188 185.367188 C 197.835938 185.523438 198.269531 185.382812 198.269531 185.199219 Z M 198.269531 185.199219 " fill-opacity="1" fill-rule="nonzero"/><path fill="#000000" d="M 114.074219 191.660156 C 113.921875 191.5625 113.929688 191.515625 114.113281 191.441406 C 114.246094 191.390625 114.390625 191.410156 114.4375 191.488281 C 114.554688 191.6875 114.304688 191.808594 114.074219 191.660156 Z M 114.074219 191.660156 " fill-opacity="1" fill-rule="nonzero"/><path fill="#000000" d="M 138.703125 191.238281 C 138.644531 191 138.503906 190.863281 138.308594 190.863281 C 137.953125 190.863281 137.9375 190.734375 138.238281 190.324219 C 138.363281 190.15625 138.421875 189.871094 138.371094 189.660156 C 138.316406 189.4375 138.375 189.203125 138.523438 189.046875 C 138.746094 188.820312 138.746094 188.765625 138.511719 188.398438 C 138.316406 188.09375 138.296875 187.933594 138.425781 187.722656 C 138.558594 187.507812 138.53125 187.394531 138.300781 187.191406 C 137.925781 186.859375 137.90625 186.429688 138.277344 186.5625 C 138.710938 186.722656 139.214844 187.261719 139.132812 187.480469 C 139.089844 187.59375 139.128906 187.730469 139.21875 187.785156 C 139.433594 187.925781 139.429688 188.660156 139.210938 188.660156 C 139.113281 188.660156 139.074219 188.796875 139.121094 188.980469 C 139.167969 189.15625 139.144531 189.515625 139.070312 189.777344 C 138.894531 190.414062 139.007812 190.652344 139.542969 190.761719 C 139.980469 190.851562 140.179688 191.175781 139.800781 191.179688 C 139.695312 191.179688 139.425781 191.277344 139.203125 191.398438 C 138.820312 191.601562 138.789062 191.59375 138.703125 191.238281 Z M 138.703125 191.238281 " fill-opacity="1" fill-rule="nonzero"/><path fill="#000000" d="M 114.667969 191.40625 C 114.667969 191.378906 114.867188 191.125 115.113281 190.851562 C 115.398438 190.527344 115.644531 190.382812 115.796875 190.445312 C 116.132812 190.578125 116.101562 190.863281 115.75 190.863281 C 115.589844 190.863281 115.425781 190.960938 115.382812 191.078125 C 115.3125 191.261719 114.667969 191.5625 114.667969 191.410156 Z M 114.667969 191.40625 " fill-opacity="1" fill-rule="nonzero"/><path fill="#000000" d="M 152.347656 191.097656 C 152.246094 190.96875 152.203125 190.859375 152.253906 190.859375 C 152.308594 190.859375 152.214844 190.597656 152.042969 190.273438 C 151.679688 189.570312 151.667969 189.351562 151.96875 188.757812 C 152.179688 188.34375 152.175781 188.285156 151.929688 188.089844 C 151.679688 187.890625 151.683594 187.871094 152.019531 187.773438 C 152.28125 187.699219 152.359375 187.582031 152.3125 187.332031 C 152.246094 186.972656 152.503906 186.617188 152.835938 186.613281 C 152.976562 186.613281 152.96875 186.566406 152.804688 186.457031 C 152.679688 186.375 152.644531 186.300781 152.726562 186.296875 C 152.8125 186.292969 152.761719 186.21875 152.613281 186.128906 C 152.464844 186.042969 152.277344 186.011719 152.191406 186.066406 C 152.109375 186.117188 152.042969 186.089844 152.042969 186.003906 C 152.042969 185.914062 152.152344 185.78125 152.289062 185.699219 C 152.5 185.578125 152.492188 185.546875 152.210938 185.472656 C 152.035156 185.425781 151.890625 185.449219 151.890625 185.527344 C 151.890625 185.605469 151.769531 185.671875 151.621094 185.675781 C 151.367188 185.679688 151.367188 185.6875 151.621094 185.839844 C 151.769531 185.929688 151.890625 186.074219 151.890625 186.160156 C 151.890625 186.246094 151.769531 186.296875 151.621094 186.273438 C 151.472656 186.246094 151.265625 186.285156 151.152344 186.355469 C 150.890625 186.527344 150.859375 186.480469 150.796875 185.828125 C 150.761719 185.472656 150.8125 185.273438 150.9375 185.257812 C 151.039062 185.246094 151.144531 185.222656 151.164062 185.203125 C 151.1875 185.1875 151.375 185.144531 151.585938 185.113281 C 151.792969 185.082031 152.222656 185.015625 152.535156 184.964844 C 152.980469 184.894531 153.171875 184.945312 153.40625 185.1875 C 153.574219 185.359375 153.652344 185.535156 153.582031 185.582031 C 153.515625 185.625 153.421875 185.988281 153.375 186.390625 C 153.332031 186.789062 153.144531 187.332031 152.953125 187.59375 C 152.671875 187.988281 152.625 188.203125 152.695312 188.878906 C 152.738281 189.328125 152.714844 189.808594 152.636719 189.949219 C 152.433594 190.320312 152.746094 190.460938 153.15625 190.191406 C 153.667969 189.851562 155.082031 189.417969 155.277344 189.539062 C 155.382812 189.609375 155.402344 189.574219 155.328125 189.457031 C 155.257812 189.332031 155.332031 189.234375 155.535156 189.175781 C 155.710938 189.128906 155.855469 189.027344 155.855469 188.953125 C 155.855469 188.71875 156.734375 188.800781 156.988281 189.058594 C 157.117188 189.191406 157.308594 189.289062 157.417969 189.273438 C 157.78125 189.226562 157.992188 189.285156 157.992188 189.441406 C 157.992188 189.53125 157.859375 189.601562 157.695312 189.601562 C 157.535156 189.601562 157.359375 189.667969 157.308594 189.75 C 157.261719 189.835938 157.117188 189.859375 156.992188 189.8125 C 156.871094 189.765625 156.675781 189.800781 156.566406 189.898438 C 156.289062 190.132812 156.148438 189.949219 156.257812 189.5 C 156.359375 189.070312 155.949219 188.960938 155.796875 189.378906 C 155.652344 189.765625 155.6875 189.945312 155.882812 189.820312 C 156.003906 189.742188 156.027344 189.792969 155.957031 189.980469 C 155.902344 190.132812 155.855469 190.316406 155.855469 190.386719 C 155.855469 190.457031 155.71875 190.480469 155.550781 190.433594 C 155.382812 190.386719 155.246094 190.289062 155.246094 190.210938 C 155.246094 190.136719 155.175781 190.074219 155.09375 190.074219 C 155.007812 190.074219 154.941406 190.246094 154.941406 190.457031 C 154.941406 190.667969 154.871094 190.886719 154.789062 190.9375 C 154.703125 190.992188 154.636719 190.957031 154.636719 190.859375 C 154.636719 190.757812 154.535156 190.785156 154.394531 190.925781 C 154.097656 191.234375 153.960938 191.238281 153.71875 190.9375 C 153.460938 190.617188 153.21875 190.644531 152.992188 191.019531 C 152.765625 191.394531 152.601562 191.414062 152.347656 191.097656 Z M 152.347656 191.097656 " fill-opacity="1" fill-rule="nonzero"/><path fill="#000000" d="M 154.410156 190.390625 C 154.359375 190.304688 154.246094 190.234375 154.164062 190.234375 C 154.078125 190.234375 154.050781 190.304688 154.105469 190.390625 C 154.15625 190.476562 154.269531 190.546875 154.351562 190.546875 C 154.433594 190.546875 154.460938 190.476562 154.410156 190.390625 Z M 154.410156 190.390625 " fill-opacity="1" fill-rule="nonzero"/><path fill="#000000" d="M 140.144531 190.890625 C 140.144531 190.808594 140.253906 190.695312 140.386719 190.644531 C 140.535156 190.585938 140.601562 190.621094 140.566406 190.734375 C 140.492188 190.96875 140.144531 191.097656 140.144531 190.894531 Z M 140.144531 190.890625 " fill-opacity="1" fill-rule="nonzero"/><path fill="#000000" d="M 116.121094 190.335938 C 115.867188 190.144531 115.863281 190.117188 116.101562 190.023438 C 116.257812 189.960938 116.390625 190.015625 116.445312 190.164062 C 116.574219 190.507812 116.441406 190.578125 116.121094 190.335938 Z M 116.121094 190.335938 " fill-opacity="1" fill-rule="nonzero"/><path fill="#000000" d="M 140.101562 190.246094 C 139.460938 189.9375 139.539062 189.722656 140.375 189.511719 C 140.625 189.449219 140.863281 189.355469 140.90625 189.304688 C 141.019531 189.164062 142.03125 188.816406 142.328125 188.816406 C 142.46875 188.816406 142.585938 188.742188 142.585938 188.648438 C 142.585938 188.554688 142.742188 188.503906 142.929688 188.53125 C 143.179688 188.566406 143.285156 188.703125 143.324219 189.035156 C 143.386719 189.613281 143.058594 189.851562 142.773438 189.4375 C 142.519531 189.0625 142.054688 189.253906 141.886719 189.800781 C 141.652344 190.5625 141.066406 190.707031 140.101562 190.246094 Z M 140.101562 190.246094 " fill-opacity="1" fill-rule="nonzero"/><path fill="#000000" d="M 116.597656 190.128906 C 116.417969 189.941406 116.488281 189.84375 116.949219 189.632812 C 117.6875 189.296875 118.03125 189.6875 117.304688 190.039062 C 116.835938 190.261719 116.738281 190.273438 116.597656 190.128906 Z M 116.597656 190.128906 " fill-opacity="1" fill-rule="nonzero"/><path fill="#000000" d="M 143.457031 188.699219 C 143.410156 188.460938 143.445312 188.175781 143.53125 188.070312 C 143.765625 187.777344 144.21875 187.832031 144.300781 188.164062 C 144.34375 188.324219 144.523438 188.496094 144.699219 188.542969 C 145.113281 188.652344 145.125 188.410156 144.71875 188.183594 C 144.472656 188.050781 144.441406 187.957031 144.570312 187.710938 C 144.691406 187.480469 144.828125 187.429688 145.179688 187.5 C 145.511719 187.570312 145.65625 187.527344 145.726562 187.339844 C 145.777344 187.203125 145.882812 187.125 145.957031 187.171875 C 146.035156 187.21875 146.09375 187.183594 146.09375 187.09375 C 146.09375 187.003906 146.191406 186.929688 146.316406 186.929688 C 146.4375 186.929688 146.777344 186.78125 147.070312 186.605469 C 147.488281 186.347656 147.671875 186.316406 147.90625 186.445312 C 148.136719 186.574219 148.261719 186.558594 148.433594 186.382812 C 148.625 186.1875 148.6875 186.183594 148.832031 186.367188 C 148.964844 186.53125 148.960938 186.605469 148.808594 186.664062 C 148.683594 186.71875 148.710938 186.75 148.878906 186.757812 C 149.191406 186.773438 149.222656 186.945312 148.964844 187.214844 C 148.703125 187.480469 148.570312 187.449219 148.460938 187.085938 C 148.304688 186.574219 147.96875 186.703125 148.046875 187.242188 C 148.097656 187.601562 148.054688 187.714844 147.867188 187.714844 C 147.492188 187.714844 147.414062 187.734375 147.109375 187.902344 C 146.917969 188.011719 146.855469 188.007812 146.917969 187.902344 C 146.972656 187.808594 146.890625 187.777344 146.707031 187.828125 C 146.519531 187.878906 146.402344 187.832031 146.402344 187.707031 C 146.402344 187.597656 146.355469 187.554688 146.304688 187.609375 C 146.25 187.664062 146.292969 187.816406 146.398438 187.949219 C 146.5625 188.152344 146.523438 188.203125 146.117188 188.285156 C 145.859375 188.339844 145.679688 188.445312 145.726562 188.523438 C 145.773438 188.597656 145.652344 188.671875 145.457031 188.683594 C 144.992188 188.714844 144.847656 188.746094 144.539062 188.886719 C 144.398438 188.949219 144.210938 188.960938 144.128906 188.90625 C 144.046875 188.855469 143.9375 188.886719 143.886719 188.972656 C 143.714844 189.257812 143.539062 189.144531 143.457031 188.699219 Z M 143.457031 188.699219 " fill-opacity="1" fill-rule="nonzero"/><path fill="#000000" d="M 118.480469 188.824219 C 118.480469 188.621094 119.214844 188.300781 119.460938 188.398438 C 119.945312 188.589844 119.714844 188.914062 119.089844 188.925781 C 118.753906 188.933594 118.476562 188.886719 118.476562 188.824219 Z M 118.480469 188.824219 " fill-opacity="1" fill-rule="nonzero"/><path fill="#000000" d="M 120.082031 188.132812 C 120.320312 187.753906 121.050781 187.324219 121.195312 187.476562 C 121.238281 187.519531 121.222656 187.558594 121.15625 187.558594 C 121.089844 187.558594 121.128906 187.671875 121.238281 187.808594 C 121.40625 188.019531 121.402344 188.054688 121.21875 188.019531 C 120.871094 187.960938 120.453125 188.203125 120.570312 188.402344 C 120.625 188.5 120.558594 188.484375 120.414062 188.363281 C 120.246094 188.226562 120.15625 188.210938 120.15625 188.324219 C 120.15625 188.421875 120.085938 188.5 120.003906 188.5 C 119.917969 188.5 119.953125 188.335938 120.082031 188.132812 Z M 120.082031 188.132812 " fill-opacity="1" fill-rule="nonzero"/><path fill="#000000" d="M 121.46875 187.613281 C 121.335938 187.265625 121.359375 187.253906 122.328125 187.167969 C 122.960938 187.113281 123.226562 187.152344 123.363281 187.324219 C 123.523438 187.523438 123.472656 187.558594 123.03125 187.558594 C 122.742188 187.558594 122.425781 187.472656 122.324219 187.367188 C 122.183594 187.222656 122.140625 187.234375 122.140625 187.429688 C 122.140625 187.566406 122.03125 187.722656 121.898438 187.777344 C 121.574219 187.90625 121.578125 187.90625 121.46875 187.613281 Z M 121.46875 187.613281 " fill-opacity="1" fill-rule="nonzero"/><g clip-path="url(#42e05f92b7)"><path fill="#000000" d="M 245.304688 187.402344 C 244.703125 187.109375 244.511719 186.9375 244.558594 186.734375 C 244.597656 186.566406 244.40625 186.238281 244.082031 185.902344 C 243.546875 185.351562 243.546875 185.34375 243.828125 184.996094 C 243.988281 184.804688 244.167969 184.605469 244.234375 184.558594 C 244.300781 184.507812 244.1875 184.28125 243.984375 184.054688 C 243.78125 183.828125 243.652344 183.605469 243.699219 183.554688 C 243.746094 183.507812 243.71875 183.46875 243.636719 183.46875 C 243.554688 183.46875 243.40625 183.554688 243.300781 183.664062 C 243.148438 183.820312 243.082031 183.8125 242.972656 183.628906 C 242.855469 183.433594 242.820312 183.441406 242.730469 183.675781 C 242.675781 183.828125 242.515625 183.9375 242.378906 183.921875 C 242.242188 183.90625 242.011719 183.945312 241.863281 184.011719 C 241.707031 184.082031 241.5 184.050781 241.367188 183.9375 C 241.183594 183.777344 241.140625 183.792969 241.140625 184.015625 C 241.140625 184.222656 241.054688 184.265625 240.789062 184.195312 C 240.550781 184.132812 240.355469 184.203125 240.179688 184.414062 C 239.902344 184.75 239.617188 184.824219 239.617188 184.5625 C 239.617188 184.472656 239.464844 184.542969 239.28125 184.71875 C 239.097656 184.894531 238.910156 184.980469 238.863281 184.910156 C 238.640625 184.570312 238.066406 184.605469 237.628906 184.988281 C 237.335938 185.242188 237.171875 185.308594 237.171875 185.171875 C 237.171875 185.011719 237.132812 185.019531 237.023438 185.199219 C 236.941406 185.328125 236.875 185.371094 236.871094 185.296875 C 236.871094 185.21875 236.765625 185.246094 236.636719 185.355469 C 236.449219 185.519531 236.351562 185.507812 236.117188 185.289062 C 235.832031 185.019531 235.527344 185.1875 235.722656 185.503906 C 235.921875 185.839844 234.839844 186.3125 232.84375 186.761719 C 232.519531 186.832031 232.203125 186.980469 232.136719 187.089844 C 232.070312 187.199219 231.914062 187.246094 231.785156 187.195312 C 231.660156 187.144531 231.414062 187.230469 231.242188 187.382812 C 231.039062 187.5625 230.769531 187.636719 230.472656 187.59375 C 229.796875 187.488281 229.632812 187.214844 229.863281 186.550781 C 230.023438 186.105469 230.019531 185.957031 229.851562 185.75 C 229.675781 185.53125 229.691406 185.484375 229.976562 185.40625 C 230.203125 185.34375 230.308594 185.195312 230.308594 184.933594 C 230.308594 184.722656 230.386719 184.390625 230.484375 184.203125 C 230.640625 183.90625 230.632812 183.886719 230.433594 184.054688 C 230.308594 184.164062 230.148438 184.199219 230.078125 184.132812 C 230.011719 184.070312 230.003906 184.105469 230.0625 184.210938 C 230.136719 184.34375 230.09375 184.378906 229.941406 184.316406 C 229.679688 184.210938 229.480469 183.703125 229.613281 183.480469 C 229.664062 183.398438 229.890625 183.355469 230.121094 183.386719 C 230.347656 183.417969 230.617188 183.449219 230.710938 183.457031 C 230.964844 183.472656 231.101562 183.945312 230.917969 184.175781 C 230.800781 184.320312 230.824219 184.398438 230.988281 184.464844 C 231.1875 184.542969 231.175781 184.652344 230.914062 185.28125 C 230.582031 186.085938 230.535156 186.457031 230.765625 186.457031 C 230.851562 186.457031 230.941406 186.4375 230.972656 186.414062 C 231 186.394531 231.148438 186.480469 231.300781 186.613281 C 231.539062 186.8125 231.566406 186.816406 231.503906 186.621094 C 231.386719 186.257812 231.960938 185.710938 232.691406 185.488281 C 233.058594 185.378906 233.359375 185.238281 233.359375 185.183594 C 233.359375 185.03125 234.722656 184.699219 234.894531 184.808594 C 234.972656 184.859375 235.039062 184.832031 235.039062 184.75 C 235.039062 184.550781 235.320312 184.441406 236.945312 184.015625 C 237.699219 183.816406 238.539062 183.582031 238.8125 183.492188 C 239.085938 183.402344 239.308594 183.390625 239.308594 183.464844 C 239.308594 183.613281 239.707031 183.582031 239.863281 183.417969 C 239.921875 183.359375 240.128906 183.308594 240.320312 183.308594 C 240.507812 183.308594 240.707031 183.242188 240.757812 183.15625 C 240.859375 182.984375 241.691406 182.730469 242.515625 182.617188 C 242.808594 182.574219 243.257812 182.496094 243.519531 182.441406 C 243.925781 182.351562 244.042969 182.40625 244.398438 182.863281 C 244.625 183.152344 244.882812 183.480469 244.972656 183.59375 C 245.183594 183.859375 244.847656 184.769531 244.59375 184.621094 C 244.5 184.566406 244.617188 184.738281 244.863281 185.007812 C 245.214844 185.398438 245.285156 185.589844 245.210938 185.964844 C 245.128906 186.378906 245.167969 186.445312 245.535156 186.527344 C 246.03125 186.636719 247.261719 186.511719 247.976562 186.277344 C 248.257812 186.183594 248.523438 186.148438 248.574219 186.203125 C 248.625 186.253906 248.757812 186.214844 248.867188 186.121094 C 249.023438 185.988281 249.074219 185.996094 249.074219 186.144531 C 249.074219 186.253906 249.238281 186.160156 249.4375 185.941406 C 249.773438 185.566406 250.65625 185.199219 251.21875 185.199219 C 251.351562 185.199219 251.726562 185.0625 252.058594 184.898438 C 252.390625 184.730469 253.035156 184.480469 253.496094 184.339844 C 253.957031 184.199219 254.542969 184.007812 254.792969 183.914062 C 256.484375 183.289062 257.003906 183.125 257.574219 183.046875 C 258.160156 182.960938 258.261719 183 258.683594 183.464844 C 258.9375 183.746094 259.191406 184.160156 259.246094 184.386719 C 259.375 184.921875 259.84375 185.300781 260.511719 185.410156 C 260.808594 185.460938 261.167969 185.523438 261.3125 185.554688 C 261.660156 185.625 262.359375 186.308594 262.253906 186.480469 C 262.109375 186.726562 261.011719 186.632812 260.914062 186.367188 C 260.859375 186.222656 260.675781 186.136719 260.476562 186.15625 C 260.285156 186.175781 259.847656 186.109375 259.5 186.007812 C 258.976562 185.855469 258.878906 185.765625 258.945312 185.511719 C 258.992188 185.324219 258.949219 185.199219 258.835938 185.199219 C 258.734375 185.199219 258.691406 185.089844 258.738281 184.960938 C 258.796875 184.800781 258.730469 184.726562 258.535156 184.726562 C 258.375 184.726562 258.144531 184.617188 258.019531 184.488281 C 257.894531 184.359375 257.738281 184.253906 257.675781 184.253906 C 257.613281 184.253906 257.4375 184.132812 257.285156 183.992188 C 257.023438 183.746094 257.003906 183.75 257.003906 184.058594 C 257.003906 184.480469 256.574219 184.925781 256.277344 184.808594 C 256.152344 184.757812 255.957031 184.796875 255.839844 184.898438 C 255.679688 185.035156 255.566406 184.992188 255.332031 184.703125 C 255.167969 184.5 255.027344 184.414062 255.027344 184.519531 C 255.023438 184.621094 255.09375 184.75 255.183594 184.808594 C 255.269531 184.863281 255.320312 184.984375 255.289062 185.078125 C 255.21875 185.292969 253.984375 185.671875 253.707031 185.558594 C 253.589844 185.515625 253.496094 185.558594 253.496094 185.660156 C 253.496094 185.761719 253.429688 185.800781 253.34375 185.746094 C 253.257812 185.691406 253.191406 185.714844 253.191406 185.800781 C 253.191406 185.882812 253.042969 185.914062 252.863281 185.863281 C 252.660156 185.808594 252.46875 185.871094 252.363281 186.019531 C 252.082031 186.417969 250.78125 187.105469 250.714844 186.898438 C 250.683594 186.796875 250.503906 186.703125 250.316406 186.6875 C 250.089844 186.671875 250 186.734375 250.050781 186.871094 C 250.09375 186.988281 250.078125 187.066406 250.019531 187.050781 C 249.714844 186.972656 248.625 187.289062 248.710938 187.429688 C 248.769531 187.53125 248.683594 187.550781 248.480469 187.484375 C 248.273438 187.414062 248.070312 187.464844 247.921875 187.617188 C 247.570312 187.976562 246.269531 187.871094 245.300781 187.398438 Z M 245.304688 187.402344 " fill-opacity="1" fill-rule="nonzero"/></g><path fill="#000000" d="M 231.988281 186.929688 C 231.988281 186.84375 231.914062 186.773438 231.828125 186.773438 C 231.738281 186.773438 231.707031 186.84375 231.761719 186.929688 C 231.8125 187.015625 231.886719 187.085938 231.921875 187.085938 C 231.957031 187.085938 231.988281 187.015625 231.988281 186.929688 Z M 231.988281 186.929688 " fill-opacity="1" fill-rule="nonzero"/><path fill="#000000" d="M 135.136719 187.511719 C 135.003906 187.351562 135.015625 187.222656 135.175781 186.996094 C 135.421875 186.648438 135.542969 186.71875 135.601562 187.238281 C 135.652344 187.664062 135.382812 187.824219 135.136719 187.511719 Z M 135.136719 187.511719 " fill-opacity="1" fill-rule="nonzero"/><path fill="#000000" d="M 136.234375 187.492188 C 135.777344 187.28125 135.792969 186.644531 136.253906 186.671875 C 136.472656 186.683594 136.570312 186.769531 136.519531 186.90625 C 136.472656 187.019531 136.515625 187.164062 136.605469 187.222656 C 136.910156 187.417969 136.582031 187.65625 136.234375 187.492188 Z M 136.234375 187.492188 " fill-opacity="1" fill-rule="nonzero"/><path fill="#000000" d="M 137.4375 187.453125 C 137.332031 187.410156 137.246094 187.300781 137.246094 187.210938 C 137.246094 187.117188 137.125 186.945312 136.976562 186.824219 C 136.738281 186.632812 136.769531 186.613281 137.246094 186.652344 C 137.597656 186.679688 137.78125 186.773438 137.78125 186.929688 C 137.785156 187.058594 137.839844 187.253906 137.90625 187.363281 C 138.027344 187.5625 137.804688 187.609375 137.4375 187.453125 Z M 137.4375 187.453125 " fill-opacity="1" fill-rule="nonzero"/><path fill="#000000" d="M 137.703125 186.929688 C 137.703125 186.84375 137.636719 186.773438 137.550781 186.773438 C 137.464844 186.773438 137.398438 186.84375 137.398438 186.929688 C 137.398438 187.015625 137.464844 187.085938 137.550781 187.085938 C 137.636719 187.085938 137.703125 187.015625 137.703125 186.929688 Z M 137.703125 186.929688 " fill-opacity="1" fill-rule="nonzero"/><path fill="#000000" d="M 149.253906 186.9375 C 149.199219 186.714844 149.246094 186.660156 149.429688 186.722656 C 149.566406 186.769531 149.496094 186.671875 149.269531 186.507812 C 148.859375 186.210938 148.871094 185.960938 149.300781 185.847656 C 150.152344 185.621094 150.144531 185.617188 150.15625 186.296875 C 150.164062 186.769531 150.113281 186.925781 149.964844 186.867188 C 149.855469 186.820312 149.667969 186.886719 149.546875 187.011719 C 149.359375 187.203125 149.320312 187.195312 149.253906 186.9375 Z M 149.253906 186.9375 " fill-opacity="1" fill-rule="nonzero"/><path fill="#000000" d="M 218.613281 186.996094 C 218.542969 186.8125 218.382812 186.773438 217.96875 186.839844 C 217.167969 186.972656 216.878906 186.726562 217.410156 186.367188 C 217.742188 186.144531 217.847656 186.128906 217.949219 186.296875 C 218.015625 186.410156 218.183594 186.460938 218.316406 186.40625 C 218.449219 186.351562 218.671875 186.351562 218.804688 186.40625 C 218.996094 186.484375 219.003906 186.527344 218.839844 186.636719 C 218.683594 186.738281 218.699219 186.769531 218.90625 186.769531 C 219.234375 186.773438 219.253906 187.019531 218.9375 187.148438 C 218.800781 187.203125 218.664062 187.136719 218.609375 186.996094 Z M 218.613281 186.996094 " fill-opacity="1" fill-rule="nonzero"/><path fill="#000000" d="M 219.441406 186.636719 C 219.496094 186.496094 219.464844 186.449219 219.367188 186.507812 C 219.277344 186.566406 219.160156 186.496094 219.109375 186.355469 C 218.988281 186.03125 219.011719 186.007812 219.601562 185.886719 C 220.070312 185.792969 220.085938 185.804688 220.089844 186.320312 C 220.089844 186.71875 220.128906 186.792969 220.238281 186.613281 C 220.367188 186.410156 220.386719 186.410156 220.386719 186.636719 C 220.390625 186.832031 220.257812 186.894531 219.875 186.882812 C 219.484375 186.871094 219.375 186.808594 219.441406 186.636719 Z M 219.441406 186.636719 " fill-opacity="1" fill-rule="nonzero"/><path fill="#000000" d="M 205.460938 186.511719 C 205.601562 186.339844 205.605469 186.246094 205.476562 186.167969 C 205.382812 186.105469 205.351562 185.988281 205.410156 185.902344 C 205.578125 185.664062 206.640625 185.324219 206.835938 185.449219 C 206.933594 185.511719 207.101562 185.4375 207.210938 185.28125 C 207.371094 185.058594 207.554688 185.015625 208.113281 185.082031 C 208.75 185.15625 208.832031 185.128906 208.957031 184.789062 C 209.105469 184.386719 209.324219 184.304688 209.492188 184.589844 C 209.5625 184.699219 209.632812 184.707031 209.691406 184.605469 C 209.855469 184.339844 212.191406 183.59375 212.300781 183.773438 C 212.359375 183.871094 212.503906 183.804688 212.667969 183.609375 C 212.816406 183.433594 213.023438 183.320312 213.128906 183.363281 C 213.234375 183.40625 213.675781 183.34375 214.113281 183.226562 C 215.28125 182.914062 216.480469 183.027344 216.953125 183.488281 C 217.425781 183.953125 217.433594 184.070312 217 184.253906 L 216.65625 184.394531 L 217.015625 184.402344 C 217.355469 184.414062 217.371094 184.457031 217.277344 185.109375 C 217.210938 185.550781 217.238281 185.839844 217.34375 185.910156 C 217.554688 186.042969 217.25 186.460938 216.941406 186.460938 C 216.679688 186.460938 216.667969 186.203125 216.921875 186.078125 C 217.027344 186.027344 216.925781 186.011719 216.695312 186.042969 C 216.203125 186.113281 216.199219 186.097656 216.511719 185.601562 C 216.734375 185.253906 216.730469 185.222656 216.449219 185.128906 C 216.207031 185.050781 216.15625 184.917969 216.195312 184.464844 C 216.226562 184.152344 216.339844 183.839844 216.453125 183.765625 C 216.609375 183.664062 216.589844 183.632812 216.382812 183.632812 C 216.234375 183.632812 216.074219 183.730469 216.027344 183.855469 C 215.9375 184.101562 214.441406 184.160156 214.441406 183.917969 C 214.441406 183.621094 213.96875 183.8125 213.839844 184.160156 C 213.6875 184.570312 213.121094 184.761719 212.039062 184.765625 C 211.621094 184.769531 211.390625 184.839844 211.390625 184.96875 C 211.390625 185.238281 210.972656 185.390625 210.878906 185.152344 C 210.839844 185.046875 210.800781 185.082031 210.792969 185.230469 C 210.773438 185.628906 210.015625 185.671875 209.597656 185.296875 C 209.410156 185.128906 209.257812 185.066406 209.257812 185.15625 C 209.257812 185.246094 209.113281 185.359375 208.933594 185.40625 C 208.757812 185.457031 208.652344 185.554688 208.695312 185.628906 C 208.742188 185.707031 208.714844 185.871094 208.636719 185.996094 C 208.523438 186.175781 208.464844 186.179688 208.367188 186.023438 C 208.269531 185.871094 208.179688 185.894531 207.96875 186.132812 C 207.710938 186.425781 207.675781 186.429688 207.292969 186.179688 C 207.074219 186.035156 206.839844 185.84375 206.78125 185.753906 C 206.714844 185.660156 206.667969 185.710938 206.664062 185.867188 C 206.664062 186.019531 206.730469 186.144531 206.816406 186.144531 C 206.898438 186.144531 206.96875 186.214844 206.96875 186.300781 C 206.96875 186.386719 206.738281 186.457031 206.460938 186.457031 C 206.179688 186.457031 205.902344 186.507812 205.84375 186.566406 C 205.785156 186.628906 205.632812 186.691406 205.507812 186.710938 C 205.316406 186.742188 205.308594 186.703125 205.460938 186.511719 Z M 205.460938 186.511719 " fill-opacity="1" fill-rule="nonzero"/><path fill="#000000" d="M 243.816406 186.46875 C 243.769531 186.386719 243.800781 186.277344 243.886719 186.222656 C 244.066406 186.105469 244.34375 186.253906 244.34375 186.46875 C 244.34375 186.660156 243.933594 186.660156 243.816406 186.46875 Z M 243.816406 186.46875 " fill-opacity="1" fill-rule="nonzero"/><path fill="#000000" d="M 220.851562 186.457031 C 220.832031 186.414062 220.796875 186.160156 220.777344 185.886719 C 220.738281 185.410156 220.757812 185.394531 221.59375 185.210938 C 222.066406 185.109375 222.589844 184.964844 222.757812 184.890625 C 222.925781 184.820312 223.300781 184.652344 223.597656 184.523438 C 224.273438 184.226562 225.542969 184.066406 225.664062 184.269531 C 225.714844 184.351562 225.699219 184.410156 225.628906 184.398438 C 225.214844 184.324219 224.964844 184.460938 224.878906 184.804688 C 224.828125 185.023438 224.71875 185.15625 224.636719 185.105469 C 224.554688 185.050781 224.378906 185.164062 224.25 185.355469 C 224.070312 185.617188 223.984375 185.65625 223.890625 185.503906 C 223.804688 185.359375 223.710938 185.347656 223.570312 185.464844 C 223.457031 185.554688 223.167969 185.675781 222.925781 185.738281 C 222.597656 185.816406 222.507812 185.792969 222.5625 185.640625 C 222.613281 185.507812 222.488281 185.425781 222.183594 185.402344 C 221.761719 185.371094 221.734375 185.402344 221.796875 185.84375 C 221.878906 186.421875 221.683594 186.578125 221.308594 186.226562 C 221.046875 185.980469 221.023438 185.980469 220.953125 186.25 C 220.914062 186.410156 220.867188 186.503906 220.847656 186.460938 Z M 220.851562 186.457031 " fill-opacity="1" fill-rule="nonzero"/><path fill="#000000" d="M 223.597656 185.199219 C 223.597656 185.113281 223.527344 185.042969 223.445312 185.042969 C 223.359375 185.042969 223.292969 185.113281 223.292969 185.199219 C 223.292969 185.285156 223.359375 185.355469 223.445312 185.355469 C 223.527344 185.355469 223.597656 185.285156 223.597656 185.199219 Z M 223.597656 185.199219 " fill-opacity="1" fill-rule="nonzero"/><path fill="#000000" d="M 222.070312 185.960938 C 222.070312 185.738281 222.304688 185.726562 222.683594 185.933594 L 223.0625 186.144531 L 222.566406 186.109375 C 222.296875 186.089844 222.070312 186.023438 222.070312 185.960938 Z M 222.070312 185.960938 " fill-opacity="1" fill-rule="nonzero"/><path fill="#000000" d="M 150.367188 185.738281 C 150.367188 185.605469 150.433594 185.539062 150.519531 185.59375 C 150.601562 185.644531 150.671875 185.753906 150.671875 185.835938 C 150.671875 185.917969 150.601562 185.984375 150.519531 185.984375 C 150.433594 185.984375 150.367188 185.875 150.367188 185.738281 Z M 150.367188 185.738281 " fill-opacity="1" fill-rule="nonzero"/><path fill="#000000" d="M 225.425781 184.824219 C 225.425781 184.703125 225.546875 184.613281 225.695312 184.625 C 225.886719 184.640625 225.949219 184.546875 225.921875 184.277344 C 225.886719 183.945312 225.933594 183.914062 226.339844 183.972656 C 226.671875 184.023438 226.800781 183.980469 226.800781 183.816406 C 226.800781 183.667969 226.90625 183.617188 227.105469 183.671875 C 227.277344 183.71875 227.773438 183.65625 228.214844 183.535156 C 229.332031 183.230469 229.417969 183.242188 229.304688 183.707031 C 229.238281 183.980469 229.269531 184.101562 229.417969 184.101562 C 229.53125 184.105469 229.390625 184.222656 229.105469 184.367188 C 228.601562 184.625 228.582031 184.621094 228.296875 184.253906 C 228.0625 183.960938 227.972656 183.925781 227.871094 184.09375 C 227.800781 184.210938 227.777344 184.390625 227.816406 184.496094 C 227.855469 184.601562 227.78125 184.730469 227.648438 184.78125 C 227.371094 184.890625 226.953125 184.753906 226.953125 184.554688 C 226.953125 184.476562 226.886719 184.414062 226.800781 184.414062 C 226.714844 184.414062 226.648438 184.511719 226.648438 184.628906 C 226.648438 184.847656 226.207031 185.035156 225.695312 185.039062 C 225.546875 185.039062 225.425781 184.945312 225.425781 184.824219 Z M 225.425781 184.824219 " fill-opacity="1" fill-rule="nonzero"/><path fill="#000000" d="M 227.511719 184.183594 C 227.511719 184.054688 227.453125 183.992188 227.382812 184.035156 C 227.308594 184.082031 227.292969 184.183594 227.339844 184.265625 C 227.464844 184.46875 227.511719 184.449219 227.511719 184.183594 Z M 227.511719 184.183594 " fill-opacity="1" fill-rule="nonzero"/></svg>