<svg xmlns="http://www.w3.org/2000/svg" xmlns:xlink="http://www.w3.org/1999/xlink" width="500" zoomAndPan="magnify" viewBox="99 178 177 19" height="500" preserveAspectRatio="none" version="1.0"><defs><clipPath id="9e59fa7a83"><path d="M 99 178.011719 L 275.933594 178.011719 L 275.933594 197 L 99 197 Z M 99 178.011719 " clip-rule="nonzero"/></clipPath><clipPath id="639092ec33"><path d="M 207.5625 183.351562 C 166.660156 182.453125 160.808594 182.632812 154.78125 182.933594 C 149.347656 183.230469 144.507812 183.648438 139.492188 184.246094 C 134.597656 184.78125 129.285156 185.617188 125.042969 186.335938 C 121.582031 186.992188 118.714844 187.46875 115.730469 188.304688 C 112.863281 189.140625 108.566406 191.46875 107.550781 191.171875 C 107.25 191.113281 107.070312 190.753906 107.070312 190.574219 C 107.070312 190.394531 107.3125 190.039062 107.488281 190.039062 C 107.789062 190.039062 107.847656 190.875 108.566406 191.230469 C 110.953125 192.425781 120.386719 192.425781 127.671875 192.84375 C 137.464844 193.382812 152.09375 193.800781 162.003906 193.917969 C 169.585938 193.976562 174.125 194.039062 182.066406 193.800781 C 193.828125 193.382812 211.859375 192.484375 225.476562 191.230469 C 237.65625 190.15625 250.792969 188.605469 259.925781 186.992188 C 266.078125 185.917969 273.363281 183.351562 275.152344 183.589844 C 275.570312 183.648438 275.808594 183.769531 275.871094 183.945312 C 275.929688 184.125 275.75 184.542969 275.453125 184.722656 C 274.078125 185.378906 267.332031 183.289062 262.253906 182.695312 C 255.390625 181.859375 247.6875 181.082031 237.894531 180.542969 C 222.90625 179.707031 197.949219 179.109375 180.992188 179.289062 C 167.378906 179.410156 153.226562 180.1875 144.03125 180.84375 C 138.597656 181.261719 135.554688 181.738281 130.957031 182.277344 C 125.878906 182.871094 114.894531 183.707031 114.894531 184.425781 C 114.835938 185.023438 119.851562 185.558594 124.566406 186.097656 C 137.164062 187.46875 172.691406 189.023438 194.1875 189.5 C 212.695312 189.917969 233.59375 189.679688 245.835938 189.320312 C 252.703125 189.082031 258.195312 188.960938 261.777344 188.484375 C 263.570312 188.1875 265.179688 187.351562 265.898438 187.53125 C 266.195312 187.648438 266.433594 187.949219 266.433594 188.125 C 266.433594 188.304688 266.257812 188.664062 265.957031 188.722656 C 264.882812 189.023438 260.285156 186.695312 257.539062 185.976562 C 254.910156 185.378906 253.121094 185.199219 249.777344 184.722656 C 243.507812 183.886719 233.476562 182.695312 222.96875 182.035156 C 208.160156 181.082031 184.871094 180.1875 169.230469 180.664062 C 156.988281 181.023438 147.257812 182.097656 136.6875 183.527344 C 126.476562 184.902344 112.207031 187.769531 106.832031 189.023438 C 104.804688 189.5 103.847656 189.679688 102.714844 190.277344 C 101.699219 190.753906 100.085938 191.53125 100.085938 192.007812 C 100.144531 192.425781 101.042969 192.722656 101.9375 193.082031 C 104.027344 193.800781 108.207031 194.394531 112.566406 194.875 C 119.433594 195.53125 131.195312 195.648438 139.195312 195.769531 C 145.824219 195.890625 151.136719 195.890625 157.226562 195.648438 C 163.617188 195.410156 169.230469 195.054688 176.574219 194.277344 C 186.304688 193.140625 200.277344 191.171875 210.488281 189.140625 C 219.027344 187.53125 231.445312 182.992188 233.773438 183.527344 C 234.253906 183.648438 234.550781 184.007812 234.492188 184.1875 C 234.492188 184.363281 233.773438 184.722656 233.65625 184.664062 C 233.476562 184.542969 233.417969 183.769531 233.535156 183.648438 C 233.65625 183.527344 234.429688 183.769531 234.492188 183.945312 C 234.550781 184.125 234.429688 184.425781 234.074219 184.664062 C 232.222656 186.097656 219.265625 188.664062 210.726562 190.335938 C 200.457031 192.367188 186.425781 194.335938 176.691406 195.410156 C 169.289062 196.246094 164.632812 196.605469 157.289062 196.84375 C 147.554688 197.144531 131.730469 196.964844 123.550781 196.726562 C 118.835938 196.546875 116.089844 196.484375 112.386719 196.066406 C 108.742188 195.589844 103.667969 194.933594 101.460938 194.15625 C 100.445312 193.800781 99.667969 193.5 99.308594 192.964844 C 99.070312 192.605469 98.953125 192.128906 99.128906 191.648438 C 99.429688 190.8125 100.863281 189.859375 102.355469 189.140625 C 104.804688 187.886719 108.921875 187.171875 113.28125 186.277344 C 119.550781 184.902344 128.148438 183.410156 136.566406 182.335938 C 146.539062 181.082031 158.0625 179.886719 169.230469 179.46875 C 180.933594 179.050781 193.648438 179.527344 205.414062 180.007812 C 216.636719 180.425781 230.191406 181.441406 238.371094 182.214844 C 243.207031 182.632812 246.015625 182.933594 249.957031 183.527344 C 254.074219 184.1875 259.507812 185.023438 262.433594 186.035156 C 264.167969 186.574219 266.078125 187.230469 266.375 187.828125 C 266.496094 188.125 266.375 188.425781 266.195312 188.605469 C 265.957031 188.902344 265.421875 189.023438 264.703125 189.203125 C 263.03125 189.621094 259.449219 189.859375 255.746094 190.097656 C 249.777344 190.515625 240.878906 190.695312 232.042969 190.8125 C 220.878906 190.992188 208.039062 190.992188 194.128906 190.695312 C 176.992188 190.277344 151.019531 189.140625 136.867188 188.1875 C 128.566406 187.648438 120.6875 187.113281 117.042969 186.335938 C 115.609375 186.035156 114.535156 185.976562 114.117188 185.441406 C 113.820312 185.023438 113.699219 184.304688 114.058594 183.828125 C 114.835938 182.871094 118.535156 182.753906 121.761719 182.214844 C 127.253906 181.320312 135.613281 180.304688 143.972656 179.648438 C 154.78125 178.8125 168.511719 178.273438 181.050781 178.097656 C 193.949219 177.855469 210.011719 178.273438 220.519531 178.574219 C 227.503906 178.753906 231.683594 178.933594 237.953125 179.351562 C 245.417969 179.828125 255.507812 180.605469 262.375 181.5 C 267.511719 182.15625 274.617188 182.515625 275.570312 183.648438 C 275.871094 183.945312 275.808594 184.363281 275.570312 184.664062 C 274.972656 185.441406 272.285156 185.859375 269.601562 186.453125 C 264.167969 187.648438 252.523438 189.320312 244.761719 190.394531 C 237.953125 191.292969 233.296875 191.769531 225.59375 192.425781 C 214.011719 193.382812 196.097656 194.574219 182.125 194.992188 C 168.988281 195.292969 154.121094 195.054688 144.089844 194.753906 C 137.464844 194.636719 133.285156 194.457031 127.550781 194.039062 C 121.28125 193.558594 109.996094 193.800781 107.90625 192.066406 C 107.25 191.53125 107.070312 190.695312 107.371094 190.097656 C 107.96875 188.84375 111.96875 188.066406 115.492188 187.171875 C 121.28125 185.617188 132.269531 183.945312 139.375 183.050781 C 145.046875 182.335938 149.347656 182.035156 154.71875 181.738281 C 160.75 181.441406 166.660156 181.261719 173.945312 181.261719 C 183.617188 181.261719 205.054688 180.84375 207.621094 182.15625 C 208.039062 182.335938 208.21875 182.632812 208.160156 182.8125 C 208.160156 183.050781 207.5625 183.351562 207.5625 183.351562 " clip-rule="nonzero"/></clipPath><clipPath id="279f837561"><path d="M 0 0.0117188 L 176.933594 0.0117188 L 176.933594 19 L 0 19 Z M 0 0.0117188 " clip-rule="nonzero"/></clipPath><clipPath id="d32737ced9"><path d="M 108.5625 5.351562 C 67.660156 4.453125 61.808594 4.632812 55.78125 4.933594 C 50.347656 5.230469 45.507812 5.648438 40.492188 6.246094 C 35.597656 6.78125 30.285156 7.617188 26.042969 8.335938 C 22.582031 8.992188 19.714844 9.46875 16.730469 10.304688 C 13.863281 11.140625 9.566406 13.46875 8.550781 13.171875 C 8.25 13.113281 8.070312 12.753906 8.070312 12.574219 C 8.070312 12.394531 8.3125 12.039062 8.488281 12.039062 C 8.789062 12.039062 8.847656 12.875 9.566406 13.230469 C 11.953125 14.425781 21.386719 14.425781 28.671875 14.84375 C 38.464844 15.382812 53.09375 15.800781 63.003906 15.917969 C 70.585938 15.976562 75.125 16.039062 83.066406 15.800781 C 94.828125 15.382812 112.859375 14.484375 126.476562 13.230469 C 138.65625 12.15625 151.792969 10.605469 160.925781 8.992188 C 167.078125 7.917969 174.363281 5.351562 176.152344 5.589844 C 176.570312 5.648438 176.808594 5.769531 176.871094 5.945312 C 176.929688 6.125 176.75 6.542969 176.453125 6.722656 C 175.078125 7.378906 168.332031 5.289062 163.253906 4.695312 C 156.390625 3.859375 148.6875 3.082031 138.894531 2.542969 C 123.90625 1.707031 98.949219 1.109375 81.992188 1.289062 C 68.378906 1.410156 54.226562 2.1875 45.03125 2.84375 C 39.597656 3.261719 36.554688 3.738281 31.957031 4.277344 C 26.878906 4.871094 15.894531 5.707031 15.894531 6.425781 C 15.835938 7.023438 20.851562 7.558594 25.566406 8.097656 C 38.164062 9.46875 73.691406 11.023438 95.1875 11.5 C 113.695312 11.917969 134.59375 11.679688 146.835938 11.320312 C 153.703125 11.082031 159.195312 10.960938 162.777344 10.484375 C 164.570312 10.1875 166.179688 9.351562 166.898438 9.53125 C 167.195312 9.648438 167.433594 9.949219 167.433594 10.125 C 167.433594 10.304688 167.257812 10.664062 166.957031 10.722656 C 165.882812 11.023438 161.285156 8.695312 158.539062 7.976562 C 155.910156 7.378906 154.121094 7.199219 150.777344 6.722656 C 144.507812 5.886719 134.476562 4.695312 123.96875 4.035156 C 109.160156 3.082031 85.871094 2.1875 70.230469 2.664062 C 57.988281 3.023438 48.257812 4.097656 37.6875 5.527344 C 27.476562 6.902344 13.207031 9.769531 7.832031 11.023438 C 5.804688 11.5 4.847656 11.679688 3.714844 12.277344 C 2.699219 12.753906 1.085938 13.53125 1.085938 14.007812 C 1.144531 14.425781 2.042969 14.722656 2.9375 15.082031 C 5.027344 15.800781 9.207031 16.394531 13.566406 16.875 C 20.433594 17.53125 32.195312 17.648438 40.195312 17.769531 C 46.824219 17.890625 52.136719 17.890625 58.226562 17.648438 C 64.617188 17.410156 70.230469 17.054688 77.574219 16.277344 C 87.304688 15.140625 101.277344 13.171875 111.488281 11.140625 C 120.027344 9.53125 132.445312 4.992188 134.773438 5.527344 C 135.253906 5.648438 135.550781 6.007812 135.492188 6.1875 C 135.492188 6.363281 134.773438 6.722656 134.65625 6.664062 C 134.476562 6.542969 134.417969 5.769531 134.535156 5.648438 C 134.65625 5.527344 135.429688 5.769531 135.492188 5.945312 C 135.550781 6.125 135.429688 6.425781 135.074219 6.664062 C 133.222656 8.097656 120.265625 10.664062 111.726562 12.335938 C 101.457031 14.367188 87.425781 16.335938 77.691406 17.410156 C 70.289062 18.246094 65.632812 18.605469 58.289062 18.84375 C 48.554688 19.144531 32.730469 18.964844 24.550781 18.726562 C 19.835938 18.546875 17.089844 18.484375 13.386719 18.066406 C 9.742188 17.589844 4.667969 16.933594 2.460938 16.15625 C 1.445312 15.800781 0.667969 15.5 0.308594 14.964844 C 0.0703125 14.605469 -0.046875 14.128906 0.128906 13.648438 C 0.429688 12.8125 1.863281 11.859375 3.355469 11.140625 C 5.804688 9.886719 9.921875 9.171875 14.28125 8.277344 C 20.550781 6.902344 29.148438 5.410156 37.566406 4.335938 C 47.539062 3.082031 59.0625 1.886719 70.230469 1.46875 C 81.933594 1.050781 94.648438 1.527344 106.414062 2.007812 C 117.636719 2.425781 131.191406 3.441406 139.371094 4.214844 C 144.207031 4.632812 147.015625 4.933594 150.957031 5.527344 C 155.074219 6.1875 160.507812 7.023438 163.433594 8.035156 C 165.167969 8.574219 167.078125 9.230469 167.375 9.828125 C 167.496094 10.125 167.375 10.425781 167.195312 10.605469 C 166.957031 10.902344 166.421875 11.023438 165.703125 11.203125 C 164.03125 11.621094 160.449219 11.859375 156.746094 12.097656 C 150.777344 12.515625 141.878906 12.695312 133.042969 12.8125 C 121.878906 12.992188 109.039062 12.992188 95.128906 12.695312 C 77.992188 12.277344 52.019531 11.140625 37.867188 10.1875 C 29.566406 9.648438 21.6875 9.113281 18.042969 8.335938 C 16.609375 8.035156 15.535156 7.976562 15.117188 7.441406 C 14.820312 7.023438 14.699219 6.304688 15.058594 5.828125 C 15.835938 4.871094 19.535156 4.753906 22.761719 4.214844 C 28.253906 3.320312 36.613281 2.304688 44.972656 1.648438 C 55.78125 0.8125 69.511719 0.273438 82.050781 0.0976562 C 94.949219 -0.144531 111.011719 0.273438 121.519531 0.574219 C 128.503906 0.753906 132.683594 0.933594 138.953125 1.351562 C 146.417969 1.828125 156.507812 2.605469 163.375 3.5 C 168.511719 4.15625 175.617188 4.515625 176.570312 5.648438 C 176.871094 5.945312 176.808594 6.363281 176.570312 6.664062 C 175.972656 7.441406 173.285156 7.859375 170.601562 8.453125 C 165.167969 9.648438 153.523438 11.320312 145.761719 12.394531 C 138.953125 13.292969 134.296875 13.769531 126.59375 14.425781 C 115.011719 15.382812 97.097656 16.574219 83.125 16.992188 C 69.988281 17.292969 55.121094 17.054688 45.089844 16.753906 C 38.464844 16.636719 34.285156 16.457031 28.550781 16.039062 C 22.28125 15.558594 10.996094 15.800781 8.90625 14.066406 C 8.25 13.53125 8.070312 12.695312 8.371094 12.097656 C 8.96875 10.84375 12.96875 10.066406 16.492188 9.171875 C 22.28125 7.617188 33.269531 5.945312 40.375 5.050781 C 46.046875 4.335938 50.347656 4.035156 55.71875 3.738281 C 61.75 3.441406 67.660156 3.261719 74.945312 3.261719 C 84.617188 3.261719 106.054688 2.84375 108.621094 4.15625 C 109.039062 4.335938 109.21875 4.632812 109.160156 4.8125 C 109.160156 5.050781 108.5625 5.351562 108.5625 5.351562 " clip-rule="nonzero"/></clipPath><clipPath id="969ca77beb"><rect x="0" width="177" y="0" height="19"/></clipPath></defs><g clip-path="url(#9e59fa7a83)"><g clip-path="url(#639092ec33)"><g transform="matrix(1, 0, 0, 1, 99, 178)"><g clip-path="url(#969ca77beb)"><g clip-path="url(#279f837561)"><g clip-path="url(#d32737ced9)"><rect x="-181.5" width="540" fill="#000000" height="539.999987" y="-260.499998" fill-opacity="1"/></g></g></g></g></g></g></svg>